<?xml version="1.0" encoding="UTF-8"?>
<svg version="1.1" xmlns="http://www.w3.org/2000/svg" width="512" height="512">
<path d="M0 0 C1.75086914 -0.03577148 1.75086914 -0.03577148 3.53710938 -0.07226562 C13.08419582 -0.05594582 13.08419582 -0.05594582 16.75390625 2.78515625 C20.1810717 6.90819285 21.26569774 10.5880353 21.6953125 15.87890625 C21.77910156 16.89146484 21.86289063 17.90402344 21.94921875 18.94726562 C22.02785156 19.99591797 22.10648438 21.04457031 22.1875 22.125 C22.27386719 23.14658203 22.36023438 24.16816406 22.44921875 25.22070312 C23.01569979 32.34667497 23.16298749 39.41592538 23.0625 46.5625 C24.34640625 46.53929687 25.6303125 46.51609375 26.953125 46.4921875 C70.10341038 45.94024609 111.81900717 57.12329933 145.0625 85.5625 C145.85914063 86.23667969 146.65578125 86.91085938 147.4765625 87.60546875 C158.68539885 97.373169 167.97085931 108.1166132 176.0625 120.5625 C177.65815398 123.68893132 177.65815398 123.68893132 179.94750977 124.02319336 C181.08917603 124.0871228 181.08917603 124.0871228 182.25390625 124.15234375 C183.10734619 124.21180176 183.96078613 124.27125977 184.84008789 124.33251953 C185.75910889 124.38778809 186.67812988 124.44305664 187.625 124.5 C217.09524731 126.85922265 244.39485535 138.28647882 266.0625 158.5625 C266.60890137 159.06652344 267.15530273 159.57054687 267.71826172 160.08984375 C291.06311433 181.80346717 307.56864026 212.74233967 309.23950195 244.97729492 C309.52433855 261.55115372 309.64116669 277.47885161 305.0625 293.5625 C304.88058105 294.22942871 304.69866211 294.89635742 304.51123047 295.58349609 C298.52131672 317.06475069 286.52435416 335.7346848 271.0625 351.5625 C270.33546875 352.35140625 269.6084375 353.1403125 268.859375 353.953125 C248.85086494 375.14732454 217.71671988 389.23274313 188.64770508 390.73950195 C172.07384628 391.02433855 156.14614839 391.14116669 140.0625 386.5625 C139.39557129 386.38058105 138.72864258 386.19866211 138.04150391 386.01123047 C127.15484442 382.97555343 115.79874459 378.26362538 106.4765625 371.7578125 C103.13871922 370.10509398 101.64283088 370.56085981 98.0625 371.5625 C94.86101441 372.70770431 91.7152356 373.97776639 88.5625 375.25 C64.46180162 384.64629645 38.32319052 390.63012095 12.3671875 390.765625 C11.46536743 390.77268463 10.56354736 390.77974426 9.63439941 390.78701782 C-27.97567206 391.0145535 -27.97567206 391.0145535 -44.9375 387.5625 C-46.4846167 387.25650879 -46.4846167 387.25650879 -48.06298828 386.94433594 C-62.77706643 383.96728641 -76.96768331 380.06371111 -90.9375 374.5625 C-91.97559814 374.159104 -91.97559814 374.159104 -93.03466797 373.74755859 C-135.49943996 356.99728062 -171.51906186 324.49005917 -190.1640625 282.67578125 C-199.37675327 261.1032072 -203.36914411 239.01512244 -203.3125 215.625 C-203.31228851 214.8153479 -203.31207703 214.0056958 -203.31185913 213.17150879 C-203.27670059 199.63530568 -202.21786447 186.74056236 -198.9375 173.5625 C-198.66462158 172.42143799 -198.66462158 172.42143799 -198.38623047 171.25732422 C-195.57791898 159.79569904 -191.08048781 149.15768297 -185.9375 138.5625 C-185.45192627 137.56041504 -185.45192627 137.56041504 -184.95654297 136.53808594 C-166.80140515 99.63709915 -134.08445121 70.47289617 -95.30102539 56.72021484 C-71.50033021 48.6469565 -47.96786789 46.1141949 -22.9375 46.5625 C-22.9516394 45.59437378 -22.9516394 45.59437378 -22.96606445 44.60668945 C-23.02534868 37.28606423 -22.68166283 30.04798122 -22.125 22.75 C-22.01961914 21.1112793 -22.01961914 21.1112793 -21.91210938 19.43945312 C-21.39319835 12.61888666 -20.88676437 7.35911627 -15.70166016 2.44238281 C-10.87902614 -0.83745131 -5.66315908 -0.05298498 0 0 Z " fill="#010100" transform="translate(202.9375,60.4375)"/>
<path d="M0 0 C0.61113647 0.60400635 0.61113647 0.60400635 1.23461914 1.22021484 C5.71573441 5.38597139 9.52706609 7.24210587 15.4375 8.625 C16.21013184 8.82246826 16.98276367 9.01993652 17.77880859 9.22338867 C20.1817853 9.83355581 22.59031436 10.41697219 25 11 C26.57735401 11.39763874 28.15419165 11.79733227 29.73046875 12.19921875 C33.48230873 13.15259867 37.23914793 14.08284398 41 15 C40.93941406 15.81976318 40.87882812 16.63952637 40.81640625 17.48413086 C39.37230422 36.22380211 39.37230422 36.22380211 38.6875 55 C38.66236328 56.85625 38.66236328 56.85625 38.63671875 58.75 C39.05167453 62.46229256 40.04185497 64.8322782 42 68 C46.29644466 71.26529794 50.05872929 72.91827002 55.51171875 72.625 C60.42138388 71.39180311 64.23908783 68.27416214 68.25 65.29199219 C70.76600921 63.43446976 73.33071224 61.64864154 75.89160156 59.85375977 C81.4049437 55.98688699 86.8894353 52.08030941 92.359375 48.15234375 C94.15612668 46.87222272 95.95299951 45.59227173 97.75 44.3125 C98.595625 43.70003418 99.44125 43.08756836 100.3125 42.45654297 C101.11171875 41.8895166 101.9109375 41.32249023 102.734375 40.73828125 C103.43788086 40.23337158 104.14138672 39.72846191 104.86621094 39.20825195 C107.3237967 37.81665104 109.1825056 37.22038769 112 37 C113.85498047 37.82592773 113.85498047 37.82592773 115.6171875 39.18359375 C116.29547607 39.69148438 116.97376465 40.199375 117.67260742 40.72265625 C118.39939697 41.28855469 119.12618652 41.85445312 119.875 42.4375 C121.47089127 43.63646747 123.06864333 44.832961 124.66796875 46.02734375 C125.52181152 46.66913574 126.3756543 47.31092773 127.25537109 47.97216797 C132.15500363 51.59219535 137.17525993 55.03847941 142.1875 58.5 C144.09795367 59.82248712 146.00812393 61.14538378 147.91796875 62.46875 C148.79243652 63.07332031 149.6669043 63.67789063 150.56787109 64.30078125 C152.72833108 65.81019718 154.86083156 67.35091103 156.98828125 68.90625 C161.46136469 72.01594225 165.63230285 72.85806882 171 72 C174.63844921 70.40698371 177.85757281 68.58097182 180.2109375 65.32421875 C181.36578549 61.92256255 181.29220045 58.61223578 181.25 55.0625 C181.24613281 54.26287842 181.24226563 53.46325684 181.23828125 52.6394043 C181.06992078 40.07433529 179.97395581 27.52284408 179 15 C180.41925781 14.65388672 180.41925781 14.65388672 181.8671875 14.30078125 C185.44930109 13.42163098 189.02496053 12.51832137 192.59912109 11.60742188 C194.21255971 11.19922223 195.82751257 10.79696595 197.44384766 10.40039062 C199.8630145 9.80463645 202.27530499 9.18581199 204.6875 8.5625 C205.4407959 8.38178955 206.1940918 8.2010791 206.97021484 8.01489258 C211.93782797 6.69993616 214.53003675 4.95923451 218 1 C218.66 0.67 219.32 0.34 220 0 C222.37023672 1.16518752 224.56405458 2.37846506 226.8125 3.75 C227.81966064 4.36246582 227.81966064 4.36246582 228.84716797 4.98730469 C243.31493601 14.02752759 258.8645071 27.48287128 268 42 C268 42.66 268 43.32 268 44 C267.35675781 44.1451001 266.71351563 44.2902002 266.05078125 44.43969727 C252.72095319 47.49048798 240.23358594 50.84269847 228 57 C226.85273438 57.5671875 225.70546875 58.134375 224.5234375 58.71875 C213.05352225 64.62830821 203.34655591 72.157062 194 81 C193.17628906 81.75925781 192.35257812 82.51851563 191.50390625 83.30078125 C169.1480682 104.61032423 154.89140121 136.78002852 153.65234375 167.60546875 C152.85777913 204.36836379 163.63058665 239.6685542 189.43359375 266.66796875 C192.22847326 269.51151834 195.08945901 272.27523822 198 275 C188.90953152 284.09046848 168.25686742 286.62070165 156 289 C154.98389648 289.19754883 153.96779297 289.39509766 152.92089844 289.59863281 C129.40328473 293.97017585 104.79001811 294.72904927 81 292 C79.49566406 291.83951172 79.49566406 291.83951172 77.9609375 291.67578125 C53.23128453 288.20167592 28.78424101 280.90009493 6.80419922 268.97802734 C5.04724942 268.02561315 3.27570259 267.10028281 1.50390625 266.17578125 C-32.97265248 247.5091314 -58.82317467 216.16068647 -71 179 C-72.69292464 173.07181029 -73.9203523 167.06570387 -75 161 C-75.2638147 159.65023071 -75.2638147 159.65023071 -75.53295898 158.27319336 C-76.94229902 150.6637598 -77.34977681 143.29338601 -77.3125 135.5625 C-77.30758545 134.34256348 -77.3026709 133.12262695 -77.29760742 131.86572266 C-76.98838466 107.64485859 -71.60743043 85.71077911 -61 64 C-60.4328125 62.83597656 -59.865625 61.67195313 -59.28125 60.47265625 C-52.40099328 47.08536429 -43.38996467 35.79136004 -33 25 C-32.30777344 24.23300781 -31.61554687 23.46601563 -30.90234375 22.67578125 C-22.22940348 13.36782801 -11.09312613 6.1288794 0 0 Z " fill="#FE4545" transform="translate(93,142)"/>
<path d="M0 0 C1.05123047 -0.00773438 2.10246094 -0.01546875 3.18554688 -0.0234375 C27.08426632 0.0353178 47.61763986 9.74699245 64.6875 26.25 C79.69707407 42.04422297 88.09498719 62.92113522 87.9375 84.5625 C87.94523438 85.61373047 87.95296875 86.66496094 87.9609375 87.74804688 C87.90447764 110.71309538 78.96038115 131.87925321 62.6875 148.25 C46.04496337 163.9022197 25.16066651 172.47292071 2.3125 172.375 C1.41789062 172.37886719 0.52328125 172.38273438 -0.3984375 172.38671875 C-21.59154316 172.35591482 -39.19841484 165.00938609 -55.3125 151.25 C-56.55580078 150.29287109 -56.55580078 150.29287109 -57.82421875 149.31640625 C-72.87359043 136.81857639 -81.96764767 116.24532278 -84.3125 97.25 C-86.11329836 72.27733937 -80.92451286 51.0872824 -65.3125 31.25 C-64.77109375 30.55648438 -64.2296875 29.86296875 -63.671875 29.1484375 C-48.1923428 10.41386348 -23.99289927 -0.17459963 0 0 Z " fill="#EAF4FB" transform="translate(377.3125,231.75)"/>
<path d="M0 0 C1.40785994 1.15212508 2.80354592 2.31926594 4.1875 3.5 C4.98414063 4.16386719 5.78078125 4.82773438 6.6015625 5.51171875 C27.98211753 23.94665551 43.33927325 51.19857229 46.1875 79.5 C48.40271694 114.52711705 39.14094607 146.21684562 15.81030273 172.71801758 C10.8975211 178.11269084 5.80985762 182.81480668 -0.125 187.0625 C-0.78306641 187.53647217 -1.44113281 188.01044434 -2.11914062 188.4987793 C-22.43328209 202.99573456 -46.0076241 210.93503944 -71.0625 210.8125 C-72.25327148 210.80758545 -73.44404297 210.8026709 -74.67089844 210.79760742 C-83.4231982 210.6811887 -91.37334762 209.95935346 -99.8125 207.5 C-101.02292969 207.1596875 -102.23335938 206.819375 -103.48046875 206.46875 C-133.4515037 197.27556208 -159.39388432 176.90909242 -174.1875 149.125 C-188.11823308 121.90110226 -193.15942526 90.13414424 -183.8125 60.5 C-173.34469912 28.50597714 -151.92333987 2.77489888 -121.84326172 -12.51123047 C-82.19692724 -31.81486772 -34.9417101 -26.38954329 0 0 Z M-125.8125 26.5 C-126.56789063 27.09167969 -127.32328125 27.68335938 -128.1015625 28.29296875 C-143.32682731 40.98068943 -153.41821105 60.10076967 -156.8125 79.5 C-157.03096269 83.51861203 -156.99763434 87.53850494 -157 91.5625 C-157.01224609 92.63177734 -157.02449219 93.70105469 -157.03710938 94.80273438 C-157.07889412 117.85398485 -148.15008732 139.0641579 -131.8125 155.5 C-112.10145652 174.03813453 -88.85443802 180.40375059 -62.33447266 179.63623047 C-41.800814 178.5270551 -21.30385598 167.78168486 -7.34619141 152.94091797 C11.38993367 131.87301816 16.7693549 107.17112935 15.1875 79.5 C13.52013484 64.77312634 5.24211276 50.00517309 -3.8125 38.5 C-4.62460937 37.45972656 -4.62460937 37.45972656 -5.453125 36.3984375 C-18.80096968 20.24380305 -39.2304573 10.04072285 -59.8125 7.5 C-84.73662034 5.70270192 -106.0364453 10.8526304 -125.8125 26.5 Z " fill="#F9CF00" transform="translate(449.8125,224.5)"/>
<path d="M0 0 C1.03060547 0.36206543 1.03060547 0.36206543 2.08203125 0.73144531 C18.1258139 6.47685397 30.98151767 14.99863801 43 27 C43.80179688 27.79019531 44.60359375 28.58039063 45.4296875 29.39453125 C65.60312803 50.44052543 71.6654865 77.31877252 71.33984375 105.58984375 C71.05355315 114.94952689 69.2616453 123.25683726 66 132 C65.74299316 132.70398926 65.48598633 133.40797852 65.22119141 134.13330078 C56.8848279 156.35848599 40.61133689 175.23765187 20 187 C18.95199219 187.598125 17.90398437 188.19625 16.82421875 188.8125 C-6.6470393 201.37381919 -35.51568233 203.88612692 -61.05322266 196.39794922 C-88.04631195 187.85664223 -109.58658142 169.1780938 -122.75 144.1875 C-126.3512301 136.70930757 -128.80064189 128.99017741 -131 121 C-131.55494141 119.23076172 -131.55494141 119.23076172 -132.12109375 117.42578125 C-133.63342518 111.25660756 -133.28825596 104.87154526 -133.25 98.5625 C-133.25773437 97.29083984 -133.26546875 96.01917969 -133.2734375 94.70898438 C-133.25918109 87.83383106 -132.81831461 81.62574814 -131 75 C-130.81179688 74.02933594 -130.62359375 73.05867188 -130.4296875 72.05859375 C-126.51442575 53.55760335 -115.05898522 37.24061227 -102 24 C-101.20722656 23.19433594 -100.41445313 22.38867188 -99.59765625 21.55859375 C-74.34449977 -2.60208009 -32.99002173 -11.81210524 0 0 Z M-86 31 C-86.75539063 31.59167969 -87.51078125 32.18335938 -88.2890625 32.79296875 C-103.51432731 45.48068943 -113.60571105 64.60076967 -117 84 C-117.21846269 88.01861203 -117.18513434 92.03850494 -117.1875 96.0625 C-117.19974609 97.13177734 -117.21199219 98.20105469 -117.22460938 99.30273438 C-117.26639412 122.35398485 -108.33758732 143.5641579 -92 160 C-72.28895652 178.53813453 -49.04193802 184.90375059 -22.52197266 184.13623047 C-1.988314 183.0270551 18.50864402 172.28168486 32.46630859 157.44091797 C51.20243367 136.37301816 56.5818549 111.67112935 55 84 C53.33263484 69.27312634 45.05461276 54.50517309 36 43 C35.18789063 41.95972656 35.18789063 41.95972656 34.359375 40.8984375 C21.01153032 24.74380305 0.5820427 14.54072285 -20 12 C-44.92412034 10.20270192 -66.2239453 15.3526304 -86 31 Z " fill="#030301" transform="translate(410,220)"/>
<path d="M0 0 C3.3 0 6.6 0 10 0 C10.31682633 3.29130261 10.62951468 6.58286468 10.9375 9.875 C11.0303125 10.86556396 11.123125 11.85612793 11.21875 12.87670898 C11.86702083 20.00369348 12.34351851 27.12161069 12.57006836 34.27490234 C12.7345751 38.23145255 13.13389875 41.47440157 15 45 C17.97559267 46.48779633 21.03171308 46.17783891 24.296875 46.2109375 C25.81845374 46.236712 27.34001931 46.26327333 28.86157227 46.29052734 C29.66023712 46.30380066 30.45890198 46.31707397 31.2817688 46.33074951 C49.68511931 46.66068507 68.3778419 47.09810819 86 53 C87.64162109 53.53367187 87.64162109 53.53367187 89.31640625 54.078125 C92.21791764 55.03296768 95.11140743 56.00688877 98 57 C97.67 57.66 97.34 58.32 97 59 C94.51904297 59.71435547 94.51904297 59.71435547 91.2421875 60.3671875 C90.05882812 60.61339844 88.87546875 60.85960937 87.65625 61.11328125 C85.15945081 61.61625216 82.66206293 62.11631064 80.1640625 62.61328125 C72.37182908 64.24087979 66.31896536 65.68103464 60.5625 71.4375 C56.73839301 80.15646393 59.21317827 90.65998042 60.28320312 99.87695312 C61.07659189 106.94895799 61.20902871 113.88141103 61 121 C54.46213219 116.98973119 48.13134424 112.74509196 41.875 108.3125 C41.15844238 107.80493164 40.44188477 107.29736328 39.70361328 106.77441406 C35.93009368 104.09514003 32.16697201 101.40185457 28.41015625 98.69921875 C27.66072754 98.16321045 26.91129883 97.62720215 26.13916016 97.07495117 C24.71735578 96.05786756 23.29880847 95.03620818 21.88427734 94.0090332 C12.35790802 87.09601876 12.35790802 87.09601876 1 86 C-2.25003788 87.5043333 -2.25003788 87.5043333 -5.375 89.75 C-5.9716748 90.1519458 -6.56834961 90.5538916 -7.18310547 90.96801758 C-9.13587332 92.29309208 -11.06908527 93.64330843 -13 95 C-13.97936523 95.68231689 -13.97936523 95.68231689 -14.97851562 96.37841797 C-19.20848829 99.32848411 -23.41375958 102.31237827 -27.61425781 105.30419922 C-32.06541398 108.46810945 -36.53155113 111.61058111 -41 114.75 C-41.87930176 115.37092529 -42.75860352 115.99185059 -43.66455078 116.6315918 C-44.47649902 117.20176025 -45.28844727 117.77192871 -46.125 118.359375 C-46.84945312 118.86952148 -47.57390625 119.37966797 -48.3203125 119.90527344 C-50 121 -50 121 -51 121 C-51.3074451 111.94744985 -50.65803272 103.12909442 -49.71142578 94.13232422 C-48.19463693 82.60076254 -48.19463693 82.60076254 -50.5625 71.5625 C-57.0491704 64.74317983 -64.95631336 63.64934924 -73.875 61.875 C-76.33227157 61.37999178 -78.78810801 60.87778574 -81.2421875 60.3671875 C-82.3235498 60.15175293 -83.40491211 59.93631836 -84.51904297 59.71435547 C-85.33775879 59.47861816 -86.15647461 59.24288086 -87 59 C-87.33 58.34 -87.66 57.68 -88 57 C-80.0071877 54.12353068 -72.03914688 51.61633697 -63.75 49.75 C-63.04311035 49.58725586 -62.3362207 49.42451172 -61.60791016 49.25683594 C-52.77941117 47.34456966 -43.94205462 46.94785298 -34.9375 46.7890625 C-33.73024261 46.76743042 -33.73024261 46.76743042 -32.49859619 46.74536133 C-29.14250307 46.68800213 -25.78659231 46.63307068 -22.43017578 46.59863281 C-19.95304102 46.57113543 -17.47679445 46.52535033 -15 46.4765625 C-14.24066162 46.47330963 -13.48132324 46.47005676 -12.69897461 46.46670532 C-8.61792067 46.3984623 -8.61792067 46.3984623 -5.0625 44.59521484 C-2.78151514 41.17059281 -2.74159315 38.47345518 -2.5 34.375 C-2.4390918 33.38270386 -2.4390918 33.38270386 -2.37695312 32.37036133 C-2.24719882 30.24713177 -2.12324774 28.12361638 -2 26 C-1.48569605 17.31509379 -0.94619512 8.65092685 0 0 Z " fill="#6ED73F" transform="translate(198,77)"/>
<path d="M0 0 C0.99 0.99 0.99 0.99 2 2 C1.278125 2.226875 0.55625 2.45375 -0.1875 2.6875 C-3.58283223 4.27198837 -5.37814269 6.32147431 -8 9 C-8.98662325 9.91630344 -9.98035662 10.82500098 -10.98046875 11.7265625 C-38.15255027 36.24133087 -55.16302411 66.30694854 -63 102 C-63.18908936 102.85505127 -63.37817871 103.71010254 -63.57299805 104.59106445 C-65.23123774 113.12010399 -65.33873271 121.55116573 -65.31567383 130.20678711 C-65.31252711 132.66631013 -65.33600923 135.12461014 -65.36132812 137.58398438 C-65.41979248 151.97387248 -63.3505755 165.6023582 -59.3125 179.4375 C-59.05903809 180.31019531 -58.80557617 181.18289063 -58.54443359 182.08203125 C-51.50355166 205.39676927 -38.6913508 225.34568665 -22 243 C-21.30390625 243.74894531 -20.6078125 244.49789062 -19.890625 245.26953125 C-11.86501979 253.63197756 -2.48208595 260.3845912 7 267 C6.34 267.33 5.68 267.66 5 268 C-28.9818826 252.73060782 -54.86447799 220.56644031 -68.31958008 186.58129883 C-71.46352835 178.2361718 -73.44017618 169.76344137 -75 161 C-75.2638147 159.65023071 -75.2638147 159.65023071 -75.53295898 158.27319336 C-76.94229902 150.6637598 -77.34977681 143.29338601 -77.3125 135.5625 C-77.30758545 134.34256348 -77.3026709 133.12262695 -77.29760742 131.86572266 C-76.98838466 107.64485859 -71.60743043 85.71077911 -61 64 C-60.4328125 62.83597656 -59.865625 61.67195313 -59.28125 60.47265625 C-52.40099328 47.08536429 -43.38996467 35.79136004 -33 25 C-32.30777344 24.23300781 -31.61554687 23.46601563 -30.90234375 22.67578125 C-22.22940348 13.36782801 -11.09312613 6.1288794 0 0 Z " fill="#E23E3E" transform="translate(93,142)"/>
<path d="M0 0 C0.66 -0.0103125 1.32 -0.020625 2 -0.03125 C5.15334558 0.80635742 6.07956395 1.80941478 8 4.5 C8.57348577 8.2019357 8.46403949 11.87139589 8.390625 15.609375 C8.38496521 16.69132141 8.37930542 17.77326782 8.37347412 18.88800049 C8.35108999 22.34245107 8.30088791 25.79586311 8.25 29.25 C8.22993772 31.59243293 8.21168648 33.93488213 8.1953125 36.27734375 C8.15121855 42.0185833 8.08428555 47.75921745 8 53.5 C9.46022583 53.4685791 9.46022583 53.4685791 10.94995117 53.43652344 C14.57463776 53.36391814 18.19926055 53.31812665 21.82446289 53.28027344 C23.39097923 53.26020442 24.95742109 53.23294249 26.52368164 53.19824219 C28.78029794 53.14951246 31.03592083 53.1269853 33.29296875 53.109375 C33.98899704 53.08872986 34.68502533 53.06808472 35.40214539 53.04681396 C38.95496457 53.04518837 40.88435284 53.426976 43.9152832 55.34082031 C46 57.5 46 57.5 47.0625 60.4375 C46.98173455 64.39500721 45.7540538 65.7459462 43 68.5 C40.69762451 69.65118774 39.35898592 69.63827352 36.79736328 69.66113281 C35.4955864 69.67554413 35.4955864 69.67554413 34.16751099 69.69024658 C33.22793549 69.69449646 32.28835999 69.69874634 31.3203125 69.703125 C30.35600311 69.70882507 29.39169373 69.71452515 28.39816284 69.72039795 C26.35545959 69.72985424 24.31274104 69.73638442 22.27001953 69.74023438 C19.14458605 69.74993918 16.01981028 69.78095642 12.89453125 69.8125 C10.91146225 69.81903004 8.92838853 69.82428051 6.9453125 69.828125 C5.54202194 69.8466452 5.54202194 69.8466452 4.11038208 69.86553955 C-2.34076309 69.84339187 -2.34076309 69.84339187 -5.55908203 68.16699219 C-8.30033071 64.99565264 -8.13870929 61.81112172 -8.17700195 57.80688477 C-8.18983719 56.63879776 -8.20267242 55.47071075 -8.21589661 54.26722717 C-8.22328354 53.00470627 -8.23067047 51.74218536 -8.23828125 50.44140625 C-8.246353 49.14557114 -8.25442474 47.84973602 -8.26274109 46.51463318 C-8.2777504 43.77171968 -8.28759793 41.02883193 -8.29516602 38.28588867 C-8.30624491 34.77398203 -8.34066882 31.26270649 -8.38033772 27.75102329 C-8.41276978 24.39784255 -8.41727863 21.04473175 -8.42578125 17.69140625 C-8.44328934 16.43090958 -8.46079742 15.1704129 -8.47883606 13.87171936 C-8.47591049 12.70048019 -8.47298492 11.52924103 -8.4699707 10.32250977 C-8.47583694 9.29231216 -8.48170319 8.26211456 -8.48774719 7.20069885 C-7.6466967 2.54372873 -4.74393444 -0.07412398 0 0 Z " fill="#010101" transform="translate(379,256.5)"/>
<path d="M0 0 C0.66 0.33 1.32 0.66 2 1 C1.38125 1.2475 0.7625 1.495 0.125 1.75 C-2.10681942 2.79566778 -2.10681942 2.79566778 -2.84765625 4.78125 C-4.32558231 7.6268839 -6.30457747 9.47440985 -8.5625 11.75 C-25.669762 30.24366818 -31.8983509 54.89958386 -31.13183594 79.56054688 C-29.80308202 104.1474156 -17.68992987 126.30512868 0 143 C-0.33 143.66 -0.66 144.32 -1 145 C-2.3961851 143.91712005 -3.79193004 142.8336726 -5.1875 141.75 C-5.96480469 141.14671875 -6.74210937 140.5434375 -7.54296875 139.921875 C-8.35378906 139.28765625 -9.16460937 138.6534375 -10 138 C-10.8353125 137.36320313 -11.670625 136.72640625 -12.53125 136.0703125 C-27.54229049 123.48193994 -36.64866004 103.04787817 -39 84 C-40.80079836 59.02733937 -35.61201286 37.8372824 -20 18 C-19.45859375 17.30648438 -18.9171875 16.61296875 -18.359375 15.8984375 C-13.13362729 9.57381761 -6.8088669 4.5392446 0 0 Z " fill="#CED7DD" transform="translate(332,245)"/>
</svg>
